<?xml version="1.0" standalone="no"?>
<!DOCTYPE svg PUBLIC "-//W3C//DTD SVG 20010904//EN"
 "http://www.w3.org/TR/2001/REC-SVG-20010904/DTD/svg10.dtd">
<svg version="1.0" xmlns="http://www.w3.org/2000/svg"
 width="860.000000pt" height="536.000000pt" viewBox="0 0 860.000000 536.000000"
 preserveAspectRatio="xMidYMid meet">

<g transform="translate(0.000000,536.000000) scale(0.100000,-0.100000)"
fill="#000000" stroke="none">
<path d="M5688 3050 c-37 -4 -127 -24 -200 -44 -469 -128 -494 -134 -645 -157
-64 -10 -83 -17 -87 -31 -8 -32 15 -91 48 -124 52 -52 95 -59 316 -56 179 2
198 1 227 -18 45 -27 52 -63 23 -117 -98 -184 -563 -385 -857 -370 -77 3 -93
2 -93 -10 0 -8 -9 -27 -19 -42 -11 -15 -23 -39 -26 -54 -4 -15 -11 -27 -16
-27 -5 0 -9 -9 -9 -21 0 -11 -4 -29 -10 -39 -14 -27 5 -31 172 -37 211 -8 377
14 568 77 177 58 374 152 690 330 247 139 421 220 604 279 69 23 132 41 141
41 22 0 20 5 -29 69 -117 152 -300 285 -466 338 -55 17 -240 25 -332 13z"/>
<path d="M4542 2413 c2 -11 -22 -67 -31 -73 -5 -3 -11 -14 -15 -26 -5 -17 4
-30 50 -68 31 -25 67 -49 80 -52 20 -5 134 13 134 21 0 2 -16 13 -35 25 -19
12 -56 51 -81 86 -43 60 -78 94 -96 94 -5 0 -7 -3 -6 -7z"/>
<path d="M2370 2362 c0 -36 26 -149 56 -243 83 -263 193 -463 386 -702 l18
-22 6 23 c4 12 10 22 15 22 5 0 9 8 9 18 0 10 9 35 20 57 11 22 20 45 20 52 0
7 9 29 20 49 12 20 19 39 16 42 -3 2 3 17 14 32 10 14 24 47 31 73 6 26 15 47
20 47 5 0 -5 24 -21 54 -17 30 -35 67 -40 83 -5 15 -22 60 -38 99 -16 38 -33
86 -37 105 -3 18 -11 51 -16 72 l-10 37 -87 0 c-101 0 -191 22 -306 74 -42 19
-76 32 -76 28z"/>
<path d="M4456 2213 c-10 -13 -16 -27 -13 -29 3 -3 26 -4 53 -2 l48 3 -35 26
-34 26 -19 -24z"/>
</g>
</svg>
